<svg width="143" height="54" viewBox="0 0 143 54" fill="none" xmlns="http://www.w3.org/2000/svg">
<path fill-rule="evenodd" clip-rule="evenodd" d="M22.95 24H11.4756L22.95 35.7088V24Z" fill="#FFA256"/>
<path fill-rule="evenodd" clip-rule="evenodd" d="M34.426 11.707H22.9502L34.426 23.4145V11.707Z" fill="#FF9357"/>
<path fill-rule="evenodd" clip-rule="evenodd" d="M11.4757 35.7081H0L11.4757 47.4155V35.7081ZM11.4757 23.4158H22.9502V11.707H11.4757V23.4158Z" fill="#FFAD4A"/>
<path fill-rule="evenodd" clip-rule="evenodd" d="M0 35.7075H11.4757V24H0V35.7075Z" fill="#FF9357"/>
<path fill-rule="evenodd" clip-rule="evenodd" d="M11.4757 23.9993H0L11.4757 35.708V23.9993ZM22.9502 11.707H11.4757L22.9502 23.4145V11.707Z" fill="#FE5B29"/>
<path fill-rule="evenodd" clip-rule="evenodd" d="M22.9502 11.707V23.4145H34.426L22.9502 11.707Z" fill="#F22770"/>
<path fill-rule="evenodd" clip-rule="evenodd" d="M22.9502 0V11.7075H34.426L22.9502 0Z" fill="#FFAD4A"/>
<path fill-rule="evenodd" clip-rule="evenodd" d="M11.4756 24V35.7088H22.95L11.4756 24Z" fill="#F22770"/>
<path fill-rule="evenodd" clip-rule="evenodd" d="M56.1424 17.6624V42.2087C56.1424 43.909 56.2973 45.3394 56.3357 45.6476H52.0497C51.9328 44.8412 51.8682 44.0282 51.8564 43.2136C50.9693 44.798 48.9977 46.1112 46.335 46.1112C40.9275 46.1112 37.2969 41.8596 37.2969 36.1791C37.2969 30.7659 40.9659 26.3221 46.2556 26.3221C49.5393 26.3221 51.1997 27.8302 51.7783 29.0274V17.6637H56.1424V17.6624ZM41.7762 36.1804C41.7762 39.7747 43.7848 42.1705 46.8355 42.1705C49.771 42.1705 51.8167 39.7352 51.8167 36.1409C51.8167 32.5453 49.8094 30.305 46.8739 30.305C43.9398 30.305 41.7762 32.5848 41.7762 36.1791V36.1804ZM74.0201 39.078L77.8043 40.2765C76.8006 43.5613 73.8268 46.2284 69.309 46.2284C64.2113 46.2284 59.6936 42.5182 59.6936 36.1396C59.6936 30.1864 64.0961 26.2444 68.8456 26.2444C74.6384 26.2444 78.0373 30.0718 78.0373 36.0237C78.0373 36.7586 77.9592 37.3763 77.9208 37.454H64.1729C64.2881 40.3147 66.5285 42.3628 69.309 42.3628C72.0128 42.3628 73.403 40.9324 74.0201 39.078ZM64.2881 34.1679H73.5169C73.4414 31.9658 71.973 29.9928 68.8827 29.9928C66.065 29.9928 64.443 32.1581 64.2881 34.1679ZM92.8418 26.708C92.4473 26.6321 92.0466 26.5933 91.6448 26.5921C89.1741 26.5921 87.0887 27.7907 86.2002 29.84V26.8239H81.8361V45.6502H86.3154V36.6809C86.3154 33.1643 87.899 31.1532 91.3734 31.1532C91.8381 31.1532 92.34 31.1927 92.8431 31.2691V26.708H92.8418ZM109.492 39.078L113.276 40.2765C112.273 43.5613 109.299 46.2284 104.78 46.2284C99.682 46.2284 95.1642 42.5182 95.1642 36.1396C95.1642 30.1864 99.5668 26.2444 104.318 26.2444C110.11 26.2444 113.508 30.0718 113.508 36.0237C113.508 36.7586 113.431 37.3763 113.391 37.454H99.6449C99.7614 40.3147 102 42.3628 104.78 42.3628C107.485 42.3628 108.875 40.9324 109.493 39.078H109.492ZM99.7614 34.1679H108.99C108.912 31.9658 107.445 29.9928 104.356 29.9928C101.536 29.9928 99.915 32.1581 99.7614 34.1679ZM117.851 47.1951C117.851 48.7414 117.233 49.6304 115.534 49.6304C115.031 49.6304 114.375 49.5514 114.183 49.5132V53.2247C114.375 53.3024 115.224 53.5724 116.731 53.5724C120.206 53.5724 122.33 51.0594 122.33 47.5428V26.8253H117.851V47.1951ZM117.154 20.1754C117.154 21.7611 118.468 23.0756 120.051 23.0756C120.827 23.0759 121.571 22.7711 122.121 22.2277C122.671 21.6843 122.982 20.9465 122.987 20.1754C122.987 18.5527 121.673 17.2383 120.051 17.2383C118.468 17.2383 117.156 18.5527 117.156 20.1754H117.154ZM133.602 42.7105C136.113 42.7105 138.276 41.5119 138.276 37.8413V36.9891L133.37 37.724C131.98 37.9572 130.86 38.729 130.86 40.2752C130.86 41.5515 131.826 42.7118 133.602 42.7118V42.7105ZM126.381 40.5465C126.381 37.1827 128.853 35.3283 132.058 34.8647L136.884 34.1297C137.966 33.9743 138.275 33.4343 138.275 32.7771C138.275 31.1927 137.194 29.9164 134.722 29.9164C132.367 29.9164 131.055 31.4245 130.86 33.3184L126.767 32.3899C127.114 29.1433 130.051 26.2444 134.685 26.2444C140.475 26.2444 142.679 29.5305 142.679 33.2789V42.6328C142.679 44.3344 142.871 45.4553 142.909 45.6489H138.738C138.7 45.5317 138.546 44.7598 138.546 43.2518C137.658 44.6821 135.804 46.2284 132.752 46.2284C128.814 46.2284 126.381 43.5218 126.381 40.5465ZM127.145 20.1279C127.145 21.1157 127.764 21.6452 128.463 21.6452C129.271 21.6452 129.566 21.0973 129.666 20.7562L130.41 21.0802C130.203 21.6992 129.584 22.4262 128.463 22.4262C127.208 22.4262 126.284 21.4384 126.284 20.1279C126.284 18.7819 127.227 17.8402 128.454 17.8402C129.602 17.8402 130.194 18.558 130.374 19.2126L129.611 19.5366C129.504 19.1138 129.19 18.6199 128.454 18.6199C127.774 18.6199 127.145 19.123 127.145 20.1279ZM134.762 20.1279C134.762 19.1322 134.134 18.5935 133.417 18.5935C132.699 18.5935 132.071 19.1322 132.071 20.1279C132.071 21.1342 132.699 21.6716 133.417 21.6716C134.134 21.6716 134.762 21.1342 134.762 20.1279ZM135.623 20.1279C135.623 21.4476 134.709 22.4262 133.417 22.4262C132.126 22.4262 131.211 21.4476 131.211 20.1279C131.211 18.8188 132.124 17.8402 133.417 17.8402C134.709 17.8402 135.624 18.8188 135.624 20.1279H135.623ZM136.42 22.2919V17.9745H137.227V18.5488C137.496 18.072 138.035 17.8481 138.536 17.8481C139.074 17.8481 139.595 18.1089 139.828 18.6647C140.168 18.0456 140.724 17.8481 141.271 17.8481C142.025 17.8481 142.759 18.3604 142.759 19.4905V22.2919H141.925V19.5814C141.925 19.015 141.647 18.5935 141.012 18.5935C140.42 18.5935 140.016 19.0598 140.016 19.6801V22.2919H139.172V19.5814C139.172 19.0242 138.904 18.5935 138.259 18.5935C137.658 18.5935 137.254 19.0414 137.254 19.688V22.2919H136.42Z" fill="#3C3838"/>
</svg>
